<mxfile host="app.diagrams.net" modified="2022-05-18T01:15:37.148Z" agent="5.0 (X11; Linux x86_64) AppleWebKit/537.36 (KHTML, like Gecko) Chrome/101.0.4951.64 Safari/537.36" etag="fnBzYuexO4Hneb40sBAL" version="18.0.7" type="github">
  <diagram id="DnDBsdrxIPuF1Ia2gWya" name="Page-1">
    <mxGraphModel dx="981" dy="525" grid="1" gridSize="10" guides="1" tooltips="1" connect="1" arrows="1" fold="1" page="1" pageScale="1" pageWidth="827" pageHeight="1169" math="0" shadow="0">
      <root>
        <mxCell id="0" />
        <mxCell id="1" parent="0" />
        <mxCell id="zsqhJ30xWtp7-Dn2G_yG-5" style="edgeStyle=orthogonalEdgeStyle;rounded=0;orthogonalLoop=1;jettySize=auto;html=1;entryX=0.5;entryY=0;entryDx=0;entryDy=0;" edge="1" parent="1" source="zsqhJ30xWtp7-Dn2G_yG-1" target="zsqhJ30xWtp7-Dn2G_yG-4">
          <mxGeometry relative="1" as="geometry" />
        </mxCell>
        <mxCell id="zsqhJ30xWtp7-Dn2G_yG-7" style="edgeStyle=orthogonalEdgeStyle;rounded=0;orthogonalLoop=1;jettySize=auto;html=1;entryX=0.5;entryY=0;entryDx=0;entryDy=0;" edge="1" parent="1" source="zsqhJ30xWtp7-Dn2G_yG-1" target="zsqhJ30xWtp7-Dn2G_yG-6">
          <mxGeometry relative="1" as="geometry" />
        </mxCell>
        <mxCell id="zsqhJ30xWtp7-Dn2G_yG-1" value="Toeic Center" style="rounded=0;whiteSpace=wrap;html=1;" vertex="1" parent="1">
          <mxGeometry x="550" y="20" width="120" height="60" as="geometry" />
        </mxCell>
        <mxCell id="zsqhJ30xWtp7-Dn2G_yG-4" value="Introduce Web" style="swimlane;" vertex="1" parent="1">
          <mxGeometry x="40" y="150" width="610" height="350" as="geometry" />
        </mxCell>
        <mxCell id="zsqhJ30xWtp7-Dn2G_yG-8" value="Home" style="whiteSpace=wrap;html=1;" vertex="1" parent="zsqhJ30xWtp7-Dn2G_yG-4">
          <mxGeometry x="10" y="40" width="90" height="30" as="geometry" />
        </mxCell>
        <mxCell id="zsqhJ30xWtp7-Dn2G_yG-9" value="About" style="whiteSpace=wrap;html=1;" vertex="1" parent="zsqhJ30xWtp7-Dn2G_yG-4">
          <mxGeometry x="110" y="40" width="90" height="30" as="geometry" />
        </mxCell>
        <mxCell id="zsqhJ30xWtp7-Dn2G_yG-10" value="Course" style="whiteSpace=wrap;html=1;" vertex="1" parent="zsqhJ30xWtp7-Dn2G_yG-4">
          <mxGeometry x="210" y="40" width="90" height="30" as="geometry" />
        </mxCell>
        <mxCell id="zsqhJ30xWtp7-Dn2G_yG-11" value="Roadmap" style="whiteSpace=wrap;html=1;" vertex="1" parent="zsqhJ30xWtp7-Dn2G_yG-4">
          <mxGeometry x="310" y="40" width="90" height="30" as="geometry" />
        </mxCell>
        <mxCell id="zsqhJ30xWtp7-Dn2G_yG-12" value="Review" style="whiteSpace=wrap;html=1;" vertex="1" parent="zsqhJ30xWtp7-Dn2G_yG-4">
          <mxGeometry x="410" y="40" width="90" height="30" as="geometry" />
        </mxCell>
        <mxCell id="zsqhJ30xWtp7-Dn2G_yG-13" value="Learner Result&amp;nbsp;" style="whiteSpace=wrap;html=1;" vertex="1" parent="zsqhJ30xWtp7-Dn2G_yG-4">
          <mxGeometry x="510" y="40" width="90" height="30" as="geometry" />
        </mxCell>
        <mxCell id="zsqhJ30xWtp7-Dn2G_yG-14" value="Testing" style="whiteSpace=wrap;html=1;" vertex="1" parent="zsqhJ30xWtp7-Dn2G_yG-4">
          <mxGeometry x="10" y="90" width="90" height="30" as="geometry" />
        </mxCell>
        <mxCell id="zsqhJ30xWtp7-Dn2G_yG-15" value="Consultant / Support" style="whiteSpace=wrap;html=1;" vertex="1" parent="zsqhJ30xWtp7-Dn2G_yG-4">
          <mxGeometry x="110" y="90" width="90" height="30" as="geometry" />
        </mxCell>
        <mxCell id="zsqhJ30xWtp7-Dn2G_yG-6" value="Learn Web" style="swimlane;" vertex="1" parent="1">
          <mxGeometry x="890" y="150" width="200" height="200" as="geometry" />
        </mxCell>
      </root>
    </mxGraphModel>
  </diagram>
</mxfile>
